<svg height="496pt" viewBox="0 0 496 496" width="496pt" xmlns="http://www.w3.org/2000/svg"><path d="m456 72v48h-272v-80h240v-32h-272v224h8l5.039062 19.921875c9.519532 2.558594 18.5625 6.316406 26.882813 11.117187l17.597656-10.558593 34 34-10.558593 17.597656c4.800781 8.320313 8.558593 17.363281 11.117187 26.882813l19.921875 5.039062v48l-19.921875 5.039062c-.238281 1.039063-.558594 2-.878906 2.960938h244.800781v-320zm0 0" fill="#e6e9ed"/><path d="m488 72h-64v-64zm0 0" fill="#fcd770"/><path d="m456 72v48h-272v-80h240v32zm0 0" fill="#69d6f4"/><path d="m432 456v32h-216v-32zm0 0" fill="#b4dd7f"/><path d="m232 424h200v32h-216v-32zm0 0" fill="#69d6f4"/><path d="m480 456-48 32v-64zm0 0" fill="#aab2bd"/><path d="m243.199219 392c-2.480469 8.480469-5.917969 16.480469-10.238281 23.921875l-.960938 8.078125h-16v64h-104l-5.039062-19.921875c-9.519532-2.558594-18.5625-6.316406-26.882813-11.117187l-17.597656 10.558593-34-34 10.558593-17.597656c-4.800781-8.320313-8.558593-17.363281-11.117187-26.882813l-19.921875-5.039062v-48l19.921875-5.039062c2.558594-9.519532 6.316406-18.5625 11.117187-26.882813l-10.558593-17.597656 34-34 17.597656 10.558593c8.320313-4.800781 17.363281-8.558593 26.882813-11.117187l5.039062-19.921875h48l5.039062 19.921875c9.519532 2.558594 18.5625 6.316406 26.882813 11.117187l17.597656-10.558593 34 34-10.558593 17.597656c4.800781 8.320313 8.558593 17.363281 11.117187 26.882813l19.921875 5.039062v48l-19.921875 5.039062c-.238281 1.039063-.558594 2-.878906 2.960938zm-107.199219 48c24.640625 0 46.71875-11.199219 61.441406-28.71875 0-.082031 0-.082031.078125-.160156 11.519531-13.839844 18.480469-31.679688 18.480469-51.121094 0-44.160156-35.839844-80-80-80s-80 35.839844-80 80 35.839844 80 80 80zm0 0" fill="#ffc729"/><path d="m216 360c0 19.441406-6.960938 37.28125-18.480469 51.121094-.078125.078125-.078125.078125-.078125.160156-14.722656 17.519531-36.800781 28.71875-61.441406 28.71875-44.160156 0-80-35.839844-80-80s35.839844-80 80-80 80 35.839844 80 80zm-32 0c0-26.480469-21.519531-48-48-48s-48 21.519531-48 48 21.519531 48 48 48 48-21.519531 48-48zm0 0" fill="#fcd770"/><path d="m344 304h56v56c-30.960938 0-56-25.039062-56-56zm0 0" fill="#b4dd7f"/><path d="m400 248v56h-56c0-30.960938 25.039062-56 56-56zm0 0" fill="#69d6f4"/><path d="m400 248c30.960938 0 56 25.039062 56 56s-25.039062 56-56 56zm0 0" fill="#fcd770"/><path d="m192 360c0-30.878906-25.128906-56-56-56s-56 25.121094-56 56 25.128906 56 56 56 56-25.121094 56-56zm-56 40c-22.054688 0-40-17.945312-40-40s17.945312-40 40-40 40 17.945312 40 40-17.945312 40-40 40zm0 0"/><path d="m496 68.6875-68.6875-68.6875h-283.3125v224h-38.230469l-5.425781 21.527344c-6.96875 2.167968-13.703125 4.945312-20.097656 8.304687l-19.039063-11.375-42.765625 42.757813 11.382813 19.03125c-3.359375 6.402344-6.144531 13.128906-8.304688 20.097656l-21.519531 5.425781v60.46875l21.519531 5.425781c2.167969 6.96875 4.945313 13.695313 8.304688 20.097657l-11.382813 19.03125 42.765625 42.757812 19.039063-11.375c6.394531 3.359375 13.128906 6.144531 20.097656 8.304688l5.425781 21.519531h328.65625l60-40-60-40-192.488281.183594c3.46875-6.527344 6.328125-13.40625 8.527344-20.527344l21.535156-5.425781v-60.46875l-21.527344-5.425781c-2.160156-6.96875-4.9375-13.6875-8.296875-20.097657l11.382813-19.03125-42.765625-42.757812-19.039063 11.375c-6.394531-3.359375-13.128906-6.144531-20.097656-8.304688l-5.425781-21.519531h-6.230469v-208h256v16h-240v96h288v-48h16v304h-191.816406v16h207.816406zm-56 404.367188v-34.101563l25.574219 17.046875zm-16-41.054688v16h-152v16h152v16h-200v-16h32v-16h-32v-16zm-236.097656-162.015625 4.082031 2.351563 16.304687-9.75 25.125 25.117187-9.75 16.3125 2.359376 4.074219c4.496093 7.773437 7.960937 16.167968 10.3125 24.957031l1.207031 4.546875 18.457031 4.636719v35.53125l-18.457031 4.644531-1.207031 4.546875c-2.351563 8.789063-5.824219 17.183594-10.3125 24.957031l-.832032 1.433594-.335937 2.863281-21.167969.015625c16.007812-19.253906 22.90625-43.679687 19.433594-68.78125-5.503906-39.699218-38.554688-71.257812-78.585938-75.042968-26.261718-2.46875-52.007812 6.707031-70.605468 25.21875-18.601563 18.511718-27.921876 44.191406-25.570313 70.472656 3.609375 40.308594 35.234375 73.558594 75.199219 79.054687 3.832031.527344 7.898437.785157 12.402344.785157l16 .070312.078124-16-16.039062-.070312c-3.808594 0-7.167969-.210938-10.265625-.632813-32.644531-4.488281-58.488281-31.664063-61.4375-64.632813-1.929687-21.519531 5.695313-42.550781 20.917969-57.695312 15.210937-15.144531 36.25-22.671875 57.824218-20.632812 32.722657 3.097656 59.738282 28.878906 64.242188 61.3125 2.847656 20.582031-2.792969 40.597656-15.882812 56.351562-3.910157 4.703125-4.710938 11.097656-2.09375 16.6875 2.695312 5.746094 8.289062 9.3125 14.589843 9.3125h4.105469v48h-89.769531l-4.644531-18.449219-4.539063-1.214843c-8.800781-2.359376-17.191406-5.832032-24.949219-10.320313l-4.082031-2.351563-16.304687 9.75-25.125-25.117187 9.75-16.3125-2.359376-4.074219c-4.488281-7.765625-7.960937-16.167968-10.320312-24.957031l-1.214844-4.539063-18.441406-4.644531v-35.53125l18.441406-4.644531 1.214844-4.539062c2.359375-8.796876 5.832031-17.191407 10.320312-24.957032l2.359376-4.074218-9.75-16.3125 25.125-25.117188 16.304687 9.75 4.082031-2.351562c7.757813-4.488282 16.160156-7.960938 24.949219-10.320313l4.539063-1.214844 4.644531-18.457031h35.53125l4.644531 18.449219 4.539062 1.214843c8.808594 2.351563 17.207032 5.832032 24.957032 10.320313zm244.097656-242.671875 36.6875 36.6875h-36.6875zm16 84.6875h-256v-64h224v32h32zm0 0"/><path d="m176 144h16v16h-16zm0 0"/><path d="m208 144h256v16h-256zm0 0"/><path d="m176 176h288v16h-288zm0 0"/><path d="m448 208h16v16h-16zm0 0"/><path d="m176 208h256v16h-256zm0 0"/><path d="m400 240c-35.289062 0-64 28.710938-64 64s28.710938 64 64 64 64-28.710938 64-64-28.710938-64-64-64zm-8 16.71875v39.28125h-39.28125c3.394531-20.054688 19.226562-35.886719 39.28125-39.28125zm-39.28125 55.28125h39.28125v39.28125c-20.054688-3.394531-35.886719-19.226562-39.28125-39.28125zm55.28125 39.28125v-94.5625c22.664062 3.824219 40 23.539062 40 47.28125s-17.335938 43.449219-40 47.28125zm0 0"/><path d="m168 432h16v16h-16zm0 0"/></svg>